<svg xmlns="http://www.w3.org/2000/svg" width="466" height="155" viewBox="0 0 466 155" fill="none"><path d="M431.404 85.4004V135.8C431.404 137.784 431.754 139.125 432.454 139.825C433.154 140.525 434.554 140.875 436.654 140.875H441.029V153.3H432.279C426.679 153.3 422.537 152.017 419.854 149.45C417.287 146.767 416.004 142.917 416.004 137.9V83.4754C416.004 78.3421 417.287 74.4921 419.854 71.9254C422.537 69.2421 426.679 67.9004 432.279 67.9004H441.904V80.3254H436.654C434.554 80.3254 433.154 80.6754 432.454 81.3754C431.754 81.9587 431.404 83.3004 431.404 85.4004ZM450.304 113.225V85.4004C450.304 83.3004 449.954 81.9587 449.254 81.3754C448.671 80.6754 447.329 80.3254 445.229 80.3254H439.629V67.9004H449.429C455.146 67.9004 459.287 69.2421 461.854 71.9254C464.537 74.4921 465.879 78.3421 465.879 83.4754V113.225H450.304ZM449.954 135.625V128.625H465.354V137.9C465.354 142.917 464.071 146.767 461.504 149.45C458.937 152.017 454.796 153.3 449.079 153.3H439.629V140.875H444.704C446.921 140.875 448.321 140.525 448.904 139.825C449.604 139.125 449.954 137.725 449.954 135.625ZM465.879 103.95V115.5H421.604V103.95H465.879Z" fill="#00A94F"></path><path d="M362.938 153.3H347.188V67.9004H362.938V78.5754V79.6254V153.3ZM395.837 153.3H380.087V85.7504C380.087 83.6504 379.737 82.3087 379.037 81.7254C378.337 81.0254 376.937 80.6754 374.837 80.6754H368.712C366.729 80.6754 365.271 81.1421 364.337 82.0754C363.404 83.0087 362.938 84.5837 362.938 86.8004V92.4004H362.237V79.8004C362.237 75.6004 363.287 72.5671 365.387 70.7004C367.487 68.8337 370.287 67.9004 373.787 67.9004H380.087C385.454 67.9004 389.421 69.2421 391.987 71.9254C394.554 74.4921 395.837 78.3421 395.837 83.4754V153.3Z" fill="#00A94F"></path><path d="M310.162 120.05V61.6C310.162 59.5 309.812 58.1583 309.112 57.575C308.528 56.875 307.128 56.525 304.912 56.525H299.137V43.75H309.637C315.353 43.75 319.495 45.0917 322.062 47.775C324.745 50.3417 326.087 54.1333 326.087 59.15V120.05H310.162ZM310.162 135.45V112.7H326.087V137.9C326.087 142.917 324.745 146.767 322.062 149.45C319.495 152.017 315.353 153.3 309.637 153.3H298.087V140.525H304.912C307.128 140.525 308.528 140.175 309.112 139.475C309.812 138.775 310.162 137.433 310.162 135.45ZM289.687 61.6V120.225H273.762V59.15C273.762 54.1333 275.045 50.3417 277.612 47.775C280.295 45.0917 284.495 43.75 290.212 43.75H300.712V56.525H294.937C292.837 56.525 291.437 56.875 290.737 57.575C290.037 58.1583 289.687 59.5 289.687 61.6ZM289.687 111.475V135.45C289.687 137.433 290.037 138.775 290.737 139.475C291.437 140.175 292.837 140.525 294.937 140.525H300.362V153.3H290.212C284.495 153.3 280.295 152.017 277.612 149.45C275.045 146.767 273.762 142.917 273.762 137.9V111.475H289.687Z" fill="#00A94F"></path><path d="M219.625 114.025H203.875V83.9246C203.875 78.7913 205.158 74.9413 207.725 72.3746C210.292 69.6913 214.258 68.3496 219.625 68.3496H225.925C229.425 68.3496 232.225 69.2829 234.325 71.1496C236.425 73.0163 237.475 76.0496 237.475 80.2496V91.9746H236.775V87.2496C236.775 85.0329 236.308 83.458 235.375 82.5246C234.442 81.5913 232.983 81.1246 231 81.1246H224.875C222.775 81.1246 221.375 81.4746 220.675 82.1746C219.975 82.7579 219.625 84.0996 219.625 86.1996V114.025ZM252.525 153.75H236.775V80.5996V79.3746V68.3496H252.525V153.75ZM203.875 108.075H219.625V135.9C219.625 137.883 219.975 139.225 220.675 139.925C221.375 140.625 222.775 140.975 224.875 140.975H231C232.983 140.975 234.442 140.566 235.375 139.75C236.308 138.816 236.775 137.183 236.775 134.85V130.3H237.475V141.85C237.475 146.05 236.425 149.083 234.325 150.95C232.225 152.816 229.425 153.75 225.925 153.75H219.625C214.258 153.75 210.292 152.466 207.725 149.9C205.158 147.216 203.875 143.366 203.875 138.35V108.075Z" fill="white"></path><path d="M178.543 53.8252V135.2C178.543 137.184 178.893 138.525 179.593 139.225C180.293 139.925 181.635 140.275 183.618 140.275H190.268V153.75H179.068C173.352 153.75 169.152 152.467 166.468 149.9C163.902 147.217 162.618 143.367 162.618 138.35V53.8252H178.543ZM190.268 68.3502V81.1252H154.568V68.3502H190.268Z" fill="white"></path><path d="M140.789 153.75H125.039V68.35H140.789V153.75ZM124.689 52.075V36.5H141.139V52.075H124.689Z" fill="white"></path><path fill-rule="evenodd" clip-rule="evenodd" d="M0 50.75L6.60602 83.7801C8.28874 92.1937 15.6762 98.25 24.2565 98.25H61L53.9901 66.0047C52.2334 57.9236 45.1964 52.0793 36.9302 51.8362L0 50.75ZM11.6575 60.597L15.9215 81.917C16.7162 85.8901 20.2047 88.75 24.2565 88.75H49.2129L44.707 68.0227C43.8774 64.2067 40.5544 61.4469 36.6509 61.3321L11.6575 60.597Z" fill="#00A94F"></path><path d="M95.407 44.75L72.407 139.75L63.9984 105.75H48.5L60.907 154.25H83.407L111.407 44.75H95.407Z" fill="white"></path></svg>